<svg width="50" height="51" viewBox="0 0 50 51" fill="none" xmlns="http://www.w3.org/2000/svg">
<rect x="0.126953" y="0.65918" width="49.377" height="49.377" rx="24.6885" fill="#E7535D"/>
<path d="M30.8792 33.1941C31.0193 33.1367 31.141 33.0438 31.2315 32.925C31.3221 32.8062 31.3783 32.6659 31.3942 32.5187C31.4101 32.3716 31.3851 32.223 31.3219 32.0884C31.2586 31.9539 31.1594 31.8383 31.0346 31.7539C30.9346 31.6861 30.8506 31.5981 30.7886 31.496C30.7266 31.3938 30.6878 31.2798 30.6751 31.1618C30.6624 31.0437 30.6759 30.9244 30.7147 30.8119C30.7536 30.6994 30.8169 30.5964 30.9003 30.5098C31.0044 30.4019 31.0767 30.2688 31.1098 30.1244C31.143 29.98 31.1357 29.8296 31.0887 29.6889C31.0417 29.5482 30.9568 29.4223 30.8428 29.3244C30.7288 29.2266 30.5899 29.1603 30.4407 29.1325C30.3209 29.1102 30.2075 29.0631 30.1081 28.9943C30.0088 28.9256 29.9258 28.8368 29.8648 28.734C29.8039 28.6312 29.7664 28.5168 29.7549 28.3987C29.7434 28.2805 29.7582 28.1613 29.7982 28.0492C29.8482 27.9095 29.8586 27.7592 29.8286 27.6142C29.7985 27.4691 29.729 27.3346 29.6273 27.2247C29.5256 27.1147 29.3954 27.0333 29.2504 26.9891C29.1054 26.9448 28.9508 26.9392 28.8028 26.973C28.6841 27 28.5608 27.0019 28.4413 26.9784C28.3218 26.9549 28.2089 26.9067 28.1103 26.8369C28.0116 26.7672 27.9296 26.6775 27.8697 26.5741C27.8099 26.4707 27.7736 26.356 27.7633 26.2377C27.7506 26.0903 27.6974 25.9489 27.6093 25.8283C27.5213 25.7077 27.4016 25.6123 27.2627 25.5521C27.1239 25.492 26.971 25.4692 26.82 25.4862C26.669 25.5031 26.5255 25.5593 26.4044 25.6487C26.3072 25.7204 26.1954 25.7709 26.0764 25.7968C25.9574 25.8227 25.8341 25.8233 25.7148 25.7986C25.5956 25.774 25.4832 25.7246 25.3853 25.6538C25.2874 25.5831 25.2063 25.4926 25.1476 25.3886C25.0743 25.259 24.9666 25.1509 24.8358 25.0756C24.705 25.0003 24.5558 24.9606 24.4038 24.9606C24.2518 24.9605 24.1026 25.0003 23.9718 25.0756C23.8409 25.1509 23.7333 25.259 23.66 25.3886C23.6012 25.4926 23.5201 25.5831 23.4223 25.6538C23.3244 25.7246 23.212 25.774 23.0927 25.7986C22.9735 25.8233 22.8501 25.8227 22.7312 25.7968C22.6122 25.7709 22.5003 25.7204 22.4032 25.6487C22.2821 25.5593 22.1386 25.5031 21.9876 25.4862C21.8366 25.4692 21.6837 25.492 21.5449 25.5521C21.406 25.6123 21.2863 25.7077 21.1982 25.8283C21.1102 25.9489 21.057 26.0903 21.0442 26.2377C21.034 26.356 20.9977 26.4707 20.9378 26.5741C20.878 26.6775 20.7959 26.7671 20.6973 26.8369C20.5987 26.9067 20.4857 26.9549 20.3662 26.9784C20.2467 27.0019 20.1234 27 20.0047 26.973C19.8567 26.9392 19.7022 26.9448 19.5571 26.9891C19.4121 27.0333 19.282 27.1147 19.1803 27.2247C19.0786 27.3346 19.0091 27.4691 18.979 27.6142C18.9489 27.7592 18.9594 27.9095 19.0094 28.0492C19.0494 28.1613 19.0642 28.2805 19.0527 28.3987C19.0412 28.5168 19.0037 28.6312 18.9427 28.734C18.8818 28.8368 18.7988 28.9256 18.6994 28.9943C18.6001 29.0631 18.4866 29.1102 18.3669 29.1325C18.2176 29.1603 18.0787 29.2266 17.9647 29.3244C17.8507 29.4223 17.7658 29.5482 17.7189 29.6889C17.6719 29.8296 17.6646 29.98 17.6977 30.1244C17.7309 30.2688 17.8032 30.4019 17.9072 30.5098C17.9906 30.5964 18.0539 30.6994 18.0928 30.8119C18.1317 30.9244 18.1452 31.0437 18.1325 31.1618C18.1197 31.2798 18.081 31.3938 18.0189 31.496C17.9569 31.5981 17.873 31.6861 17.7729 31.7539C17.6481 31.8383 17.5489 31.9539 17.4857 32.0884C17.4224 32.223 17.3975 32.3716 17.4133 32.5187C17.4292 32.6659 17.4854 32.8062 17.576 32.925C17.6666 33.0438 17.7883 33.1367 17.9284 33.1941C18.0408 33.2401 18.1416 33.3092 18.2241 33.3966C18.3067 33.484 18.3689 33.5876 18.4065 33.7005C18.4442 33.8134 18.4565 33.9328 18.4425 34.0507C18.4285 34.1686 18.3886 34.2822 18.3254 34.3838C18.2468 34.5104 18.2044 34.6552 18.2028 34.8032C18.2013 34.9511 18.2405 35.0968 18.3165 35.2249C18.3925 35.353 18.5025 35.459 18.6349 35.5316C18.7673 35.6043 18.9173 35.641 19.0692 35.6379C19.1911 35.6355 19.3121 35.6586 19.424 35.7058C19.5359 35.7529 19.636 35.823 19.7176 35.9112C19.7992 35.9994 19.8603 36.1037 19.8968 36.217C19.9333 36.3302 19.9443 36.4498 19.929 36.5676C19.91 36.7144 19.9318 36.8634 19.9922 36.9992C20.0526 37.135 20.1493 37.2525 20.2723 37.3395C20.3952 37.4265 20.5399 37.4797 20.6912 37.4936C20.8426 37.5076 20.9949 37.4817 21.1325 37.4188C21.2428 37.3683 21.363 37.3415 21.4849 37.3403C21.6068 37.3391 21.7276 37.3634 21.839 37.4117C21.9503 37.46 22.0497 37.531 22.1304 37.62C22.211 37.7091 22.271 37.8139 22.3063 37.9276C22.3503 38.0692 22.4325 38.1967 22.5444 38.2969C22.6563 38.397 22.7937 38.4661 22.9424 38.4968C23.091 38.5276 23.2455 38.5189 23.3895 38.4718C23.5336 38.4246 23.662 38.3406 23.7613 38.2287C23.841 38.1388 23.9397 38.0668 24.0505 38.0174C24.1614 37.968 24.2819 37.9424 24.4038 37.9424C24.5257 37.9424 24.6462 37.968 24.757 38.0174C24.8679 38.0668 24.9665 38.1388 25.0462 38.2287C25.1456 38.3406 25.274 38.4246 25.418 38.4718C25.5621 38.5189 25.7165 38.5276 25.8652 38.4968C26.0138 38.4661 26.1513 38.397 26.2632 38.2969C26.3751 38.1967 26.4573 38.0692 26.5013 37.9276C26.5366 37.8139 26.5966 37.7091 26.6772 37.62C26.7578 37.531 26.8572 37.46 26.9686 37.4117C27.08 37.3634 27.2007 37.3391 27.3226 37.3403C27.4446 37.3415 27.5648 37.3683 27.6751 37.4188C27.8126 37.4817 27.965 37.5076 28.1163 37.4936C28.2676 37.4797 28.4123 37.4265 28.5353 37.3395C28.6582 37.2525 28.755 37.135 28.8153 36.9992C28.8757 36.8634 28.8976 36.7144 28.8786 36.5676C28.8633 36.4498 28.8743 36.3302 28.9108 36.217C28.9473 36.1037 29.0084 35.9994 29.0899 35.9112C29.1715 35.823 29.2717 35.753 29.3835 35.7058C29.4954 35.6586 29.6164 35.6355 29.7383 35.638C29.8903 35.641 30.0403 35.6043 30.1727 35.5316C30.3051 35.459 30.415 35.353 30.491 35.2249C30.567 35.0968 30.6063 34.9511 30.6047 34.8032C30.6031 34.6552 30.5608 34.5104 30.4821 34.3838C30.419 34.2822 30.3791 34.1686 30.3651 34.0507C30.3511 33.9328 30.3633 33.8134 30.401 33.7005C30.4387 33.5876 30.5009 33.4839 30.5834 33.3966C30.6659 33.3092 30.7668 33.2401 30.8792 33.1941ZM24.4038 36.6016C23.429 36.6016 22.4761 36.3202 21.6656 35.793C20.8551 35.2657 20.2234 34.5164 19.8504 33.6396C19.4773 32.7629 19.3797 31.7981 19.5699 30.8674C19.7601 29.9366 20.2295 29.0817 20.9187 28.4106C21.608 27.7396 22.4862 27.2826 23.4423 27.0975C24.3983 26.9124 25.3893 27.0074 26.2899 27.3705C27.1905 27.7337 27.9602 28.3487 28.5018 29.1377C29.0433 29.9268 29.3324 30.8545 29.3324 31.8034C29.3324 32.4335 29.2049 33.0575 28.9572 33.6396C28.7095 34.2218 28.3465 34.7507 27.8888 35.1962C27.4312 35.6418 26.8878 35.9952 26.2899 36.2364C25.6919 36.4775 25.051 36.6016 24.4038 36.6016ZM28.1583 31.8034C28.1583 32.5264 27.9381 33.233 27.5255 33.8341C27.113 34.4352 26.5266 34.9037 25.8406 35.1803C25.1545 35.457 24.3996 35.5294 23.6713 35.3883C22.943 35.2473 22.274 34.8992 21.749 34.388C21.2239 33.8768 20.8663 33.2255 20.7214 32.5165C20.5766 31.8075 20.6509 31.0726 20.9351 30.4047C21.2193 29.7368 21.7005 29.166 22.3179 28.7643C22.9353 28.3627 23.6612 28.1483 24.4038 28.1483C24.8968 28.1483 25.385 28.2429 25.8406 28.4266C26.2961 28.6103 26.71 28.8795 27.0586 29.2189C27.4072 29.5583 27.6838 29.9612 27.8725 30.4047C28.0611 30.8482 28.1583 31.3235 28.1583 31.8034ZM20.1085 14.8828L23.0464 23.9225L21.0548 23.3102L18.4126 22.4967C18.3194 22.468 18.233 22.4218 18.1583 22.3606C18.0835 22.2994 18.0219 22.2245 17.9769 22.1401C17.9319 22.0557 17.9044 21.9636 17.896 21.8688C17.8876 21.7741 17.8984 21.6787 17.9279 21.5881L20.1085 14.8828ZM23.3376 13.0034L26.7822 23.6107L25.112 24.1241C24.924 24.1819 24.7201 24.1647 24.5452 24.0762C24.3703 23.9877 24.2386 23.8351 24.1792 23.6522L20.72 13.0034H23.3376ZM28.7243 23.0125L25.4748 13.0034H28.0895L30.879 21.5887C30.9385 21.7717 30.9209 21.9701 30.8301 22.1404C30.7393 22.3107 30.5827 22.439 30.3948 22.497L28.7243 23.0125Z" fill="white"/>
</svg>
