<svg width="50" height="50" viewBox="0 0 50 50" fill="none" xmlns="http://www.w3.org/2000/svg">
<rect width="49.377" height="49.377" rx="24.6885" fill="#52AF56"/>
<path d="M36.4918 16.1339C33.6036 16.1339 29.5232 16.3756 27.438 18.4597C26.5352 19.3625 26.0844 20.8342 26.2015 22.5C26.2166 22.72 26.363 22.9074 26.5732 22.9768C26.7823 23.0451 27.0121 22.9811 27.1552 22.8132C28.3148 21.4487 29.7562 20.3552 31.4426 19.563C31.5856 19.4947 31.7547 19.4893 31.9086 19.5435C32.044 19.5922 32.1502 19.6843 32.2055 19.8025C32.3204 20.0453 32.2835 20.365 31.9021 20.5449C31.8804 20.5557 31.8609 20.5698 31.8392 20.5796C31.8316 20.5828 31.823 20.5817 31.8165 20.585C27.6613 22.538 25.6184 25.9453 24.6907 29.4491C24.0144 25.062 22.586 22.4794 21.2367 20.8939C20.2603 19.628 19.3 18.9572 18.7452 18.5779C18.6422 18.5074 18.3312 18.295 18.2022 18.166C17.9909 17.9547 17.9909 17.6111 18.2022 17.3998C18.4135 17.1895 18.7582 17.1895 18.9933 17.4236C19.0508 17.4746 19.1429 17.5396 19.2599 17.6176L19.3564 17.6826C20.141 18.2202 21.602 19.2183 22.8981 21.3674C23.0141 21.5593 23.2385 21.6622 23.4563 21.621C23.6774 21.582 23.8508 21.4119 23.8942 21.1919C24.177 19.7472 24.0502 17.6035 22.7616 16.3149C20.6765 14.2319 16.5961 13.9902 13.7089 13.9902C13.4098 13.9902 13.167 14.233 13.167 14.5321C13.167 17.4203 13.4087 21.5007 15.4927 23.5859C16.3619 24.4551 17.7026 24.8452 19.0345 24.8452C20.1215 24.8452 21.1868 24.5732 22.0029 24.1017C23.1159 26.408 24.0046 29.8533 24.0046 35.1236C24.0046 35.4228 24.2474 35.6655 24.5465 35.6655C24.8457 35.6655 25.0884 35.4228 25.0884 35.1236C25.0884 32.1834 25.5924 28.6546 27.4662 25.7501C28.2173 26.4839 29.5102 26.9488 30.9429 26.9921C31.0145 26.9943 31.0849 26.9954 31.1553 26.9954C32.6108 26.9954 33.8972 26.5391 34.7068 25.7284C36.792 23.6433 37.0326 19.5629 37.0326 16.6746C37.0337 16.3756 36.792 16.1339 36.4918 16.1339Z" fill="white"/>
</svg>
