<svg width="50" height="51" viewBox="0 0 50 51" fill="none" xmlns="http://www.w3.org/2000/svg">
<rect y="0.65918" width="49.377" height="49.377" rx="24.6885" fill="#464377"/>
<path d="M29.785 17.9843H19.2524C19.5404 18.3599 19.692 18.8223 19.6823 19.2955V31.4187C19.6989 31.6848 19.8179 31.9341 20.0142 32.1144C20.2106 32.2947 20.4691 32.392 20.7356 32.386H25.1421V30.5374C24.5373 29.9333 24.1971 29.1138 24.1963 28.2589C24.1915 27.7179 24.3202 27.1841 24.5711 26.7047C24.8219 26.2254 25.1872 25.8153 25.6344 25.5109C26.0817 25.2065 26.5971 25.0171 27.135 24.9596C27.673 24.902 28.2168 24.978 28.7184 25.181C29.2199 25.3839 29.6636 25.7074 30.0102 26.1228C30.3568 26.5382 30.5955 27.0327 30.7053 27.5625C30.815 28.0923 30.7924 28.6409 30.6394 29.1599C30.4863 29.6788 30.2077 30.1519 29.828 30.5374V32.386H30.6233C30.7448 32.3805 30.8639 32.351 30.9739 32.2994C31.084 32.2478 31.1828 32.175 31.2646 32.0851C31.3465 31.9953 31.4098 31.8902 31.451 31.7758C31.4922 31.6615 31.5104 31.5401 31.5046 31.4187V19.7254C31.5104 19.497 31.4701 19.2697 31.386 19.0573C31.3019 18.8448 31.1758 18.6515 31.0153 18.489C30.8547 18.3264 30.663 18.1979 30.4516 18.1112C30.2402 18.0245 30.0135 17.9813 29.785 17.9843ZM21.7889 20.5637H25.5505C25.636 20.5637 25.718 20.5977 25.7785 20.6581C25.839 20.7186 25.8729 20.8006 25.8729 20.8861C25.8729 20.9716 25.839 21.0536 25.7785 21.1141C25.718 21.1746 25.636 21.2085 25.5505 21.2085H21.7889C21.7033 21.2085 21.6213 21.1746 21.5609 21.1141C21.5004 21.0536 21.4664 20.9716 21.4664 20.8861C21.4664 20.8006 21.5004 20.7186 21.5609 20.6581C21.6213 20.5977 21.7033 20.5637 21.7889 20.5637ZM29.4196 23.358H21.7889C21.7033 23.358 21.6213 23.3241 21.5609 23.2636C21.5004 23.2031 21.4664 23.1211 21.4664 23.0356C21.4664 22.9501 21.5004 22.8681 21.5609 22.8076C21.6213 22.7472 21.7033 22.7132 21.7889 22.7132H29.4196C29.5051 22.7132 29.5871 22.7472 29.6476 22.8076C29.7081 22.8681 29.742 22.9501 29.742 23.0356C29.742 23.1211 29.7081 23.2031 29.6476 23.2636C29.5871 23.3241 29.5051 23.358 29.4196 23.358Z" fill="white"/>
<path d="M17.9851 17.9842H17.7487V17.9412C17.4026 17.9628 17.0775 18.1143 16.8384 18.3654C16.5992 18.6165 16.4637 18.9486 16.459 19.2954V26.1738C16.459 26.7112 16.8459 27.227 17.3618 27.227H19.0384V19.2954C19.0384 18.629 18.63 18.1991 17.9851 17.9842Z" fill="white"/>
<path d="M27.4852 30.8815C28.9454 30.8815 30.1291 29.6978 30.1291 28.2376C30.1291 26.7775 28.9454 25.5938 27.4852 25.5938C26.025 25.5938 24.8413 26.7775 24.8413 28.2376C24.8413 29.6978 26.025 30.8815 27.4852 30.8815Z" fill="white"/>
<path d="M25.7686 31.0317L25.8115 35.2233L27.2732 34.127C27.3335 34.0864 27.4047 34.0646 27.4774 34.0646C27.5502 34.0646 27.6213 34.0864 27.6816 34.127L29.1433 35.2233V31.0532C28.6379 31.3607 28.0582 31.5242 27.4667 31.5261C26.8644 31.5312 26.2739 31.3593 25.7686 31.0317Z" fill="white"/>
</svg>
