<svg id="Layer_1" data-name="Layer 1" xmlns="http://www.w3.org/2000/svg" viewBox="0 0 841.89 213.55"><defs><style>.cls-1{fill:#0a0a0a;}.cls-2{fill:#e9515a;}.cls-3{fill:#4eb051;}</style></defs><title>Untitled-1</title><path class="cls-1" d="M119,35h6.14a14.58,14.58,0,0,1,14.58,14.58V78.44c3.77-4.91,11-11.27,25.88-11.27,20.59,0,36.44,16,36.44,38.21,0,25.61-16.55,41.07-37.8,41.07-14.95,0-21.59-5.81-25.23-11.53-.05,2.48-.15,7.43-.34,9.48H118.87c.15-10.45.15-16.93.15-25.32Zm61.71,71.24c0-11.31-6.1-22.7-20.55-22.7s-21,9.56-21,23.16,7.46,23.15,20.86,23.15C174.29,129.86,180.73,119.07,180.73,106.25Z"/><path class="cls-1" d="M285.33,124.11c0,9,.44,18.64.63,20.29H275.1a9.65,9.65,0,0,1-9.63-9.21v-.07c-4,6.91-12.62,11.33-27.32,11.33-20.79,0-28.93-12.64-28.93-24.42,0-19.58,17.34-25,39.28-25h16.56V94.13c0-6.76-2.92-12.56-15.53-12.56-11.58,0-14.19,4.64-15.34,9.76H213.45c.72-9.49,7.31-24.16,35.81-24.16,31,0,36.07,14.74,36.07,27.26Zm-20.28-13.64c-1.91-.1-7.06-.1-16.16-.1-13.72,0-19.53,3.38-19.53,10.61,0,5.71,4.45,10.4,14.29,10.4,15.22,0,21.4-7.76,21.4-19.08Z"/><path class="cls-1" d="M306.71,119l35.15-33.73H313a14.59,14.59,0,0,1-14.58-14.59V69.22h69.61a36.52,36.52,0,0,1-11,26.15l-33.78,32.88h30.23a14.59,14.59,0,0,1,14.59,14.58v1.57H295.87A35.21,35.21,0,0,1,306.71,119Z"/><path class="cls-1" d="M450.8,124.11c0,9,.44,18.64.63,20.29H440.58a9.65,9.65,0,0,1-9.64-9.21v-.07c-4,6.91-12.63,11.33-27.33,11.33-20.79,0-28.93-12.64-28.93-24.42,0-19.58,17.34-25,39.28-25h16.57V94.13c0-6.76-2.93-12.56-15.53-12.56-11.58,0-14.2,4.64-15.34,9.76H378.93c.71-9.49,7.31-24.16,35.8-24.16,31,0,36.07,14.74,36.07,27.26Zm-20.27-13.64c-1.92-.1-7.06-.1-16.17-.1-13.71,0-19.52,3.38-19.52,10.61,0,5.71,4.45,10.4,14.28,10.4,15.22,0,21.41-7.76,21.41-19.08Z"/><path class="cls-1" d="M538.68,124.11c0,9,.43,18.64.62,20.29H528.45a9.65,9.65,0,0,1-9.64-9.21v-.07c-4,6.91-12.63,11.33-27.33,11.33-20.78,0-28.93-12.64-28.93-24.42,0-19.58,17.35-25,39.29-25H518.4V94.13c0-6.76-2.93-12.56-15.53-12.56-11.58,0-14.2,4.64-15.34,9.76H466.8c.72-9.49,7.31-24.16,35.81-24.16,31,0,36.07,14.74,36.07,27.26ZM518.4,110.47c-1.92-.1-7.06-.1-16.17-.1-13.71,0-19.52,3.38-19.52,10.61,0,5.71,4.45,10.4,14.29,10.4,15.22,0,21.4-7.76,21.4-19.08Z"/><path class="cls-1" d="M556.27,89.65c0-6.8,0-13.64-.15-20.43h6.29A14.59,14.59,0,0,1,577,83.79v1c4.41-10.41,14.13-17.88,29.44-17.57V86.34C589.34,86.09,577,94,577,115.7v28.7H556.27Z"/><path class="cls-1" d="M724.55,135.54c0,27.45-11.11,43-42.69,43-32.16,0-38.06-18-39.42-26.45h21C665.33,157.78,669.84,163,683,163c17.49,0,21.05-11.23,21.05-25.94v-3.41c-4.44,6.93-11.16,11.84-26.05,11.84-21.59,0-36.25-17-36.25-37.71,0-23.57,17-40.57,38.11-40.57,16.24,0,22.21,6.75,24.19,11.49v-.09a9.68,9.68,0,0,1,9.68-9.35h11c-.15,7.34-.15,14.67-.15,22ZM663,107c0,12.28,7.6,22.24,20.64,22.24,13.22,0,20.83-8,20.83-23,0-13.91-7.06-22.67-20.15-22.67C670.24,83.55,663,94.31,663,107Z"/><path class="cls-1" d="M757.38,111.8c.68,10.77,8.26,19,20.77,19,9.86,0,14.8-3.4,18-8.86h20.73c-4.38,12.65-15.47,24.54-39.08,24.54-29.57,0-41-20.18-41-39.5,0-21.66,14.52-39.78,40.8-39.78,29,0,40.29,20.38,40.29,39.57,0,1.7,0,3-.11,5.06Zm39.26-13.13C796.11,91.92,792.5,82,777.47,82c-13.41,0-18.9,7.7-19.79,16.64Z"/><path class="cls-2" d="M44.77,111.8c.67,10.77,8.25,19,20.77,19,9.85,0,14.8-3.4,17.94-8.86h20.73c-4.38,12.65-15.47,24.54-39.08,24.54-29.57,0-41-20.18-41-39.5,0-21.66,14.52-39.78,40.8-39.78,29,0,40.29,20.38,40.29,39.57,0,1.7,0,3-.11,5.06ZM84,98.67C83.5,91.92,79.88,82,64.85,82,51.44,82,46,89.73,45.06,98.67Z"/><path class="cls-3" d="M39.56,42.42h-.12c0,9.2,5.39,19,19.31,19h.12C58.87,52.19,53.48,42.42,39.56,42.42Z"/><path class="cls-3" d="M89.83,35h-.17C70.31,35,62.81,48.59,62.81,61.38H63C82.33,61.39,89.83,47.8,89.83,35Z"/><circle class="cls-1" cx="618.23" cy="130.14" r="14.26"/></svg>