<svg width="50" height="50" viewBox="0 0 50 50" fill="none" xmlns="http://www.w3.org/2000/svg">
<rect x="0.623047" width="49.377" height="49.377" rx="24.6885" fill="#52AF56"/>
<path d="M28.3151 21.8912V16.2006H29.3481C29.5287 16.2006 29.7019 16.1275 29.8296 15.9974C29.9574 15.8673 30.0291 15.6909 30.0291 15.5069C30.0291 15.3229 29.9574 15.1465 29.8296 15.0164C29.7019 14.8863 29.5287 14.8132 29.3481 14.8132H21.2752C21.0946 14.8132 20.9213 14.8863 20.7936 15.0164C20.6659 15.1465 20.5941 15.3229 20.5941 15.5069C20.5941 15.6909 20.6659 15.8673 20.7936 15.9974C20.9213 16.1275 21.0946 16.2006 21.2752 16.2006H22.3082V21.8912C20.9935 22.5777 19.9437 23.6946 19.3276 25.0624C18.7116 26.4301 18.5652 27.9691 18.9119 29.4319C19.2585 30.8947 20.0782 32.1962 21.239 33.127C22.3998 34.0579 23.8342 34.5641 25.3116 34.5641C26.789 34.5641 28.2235 34.0579 29.3843 33.127C30.5451 32.1962 31.3647 30.8947 31.7114 29.4319C32.0581 27.9691 31.9116 26.4301 31.2956 25.0624C30.6796 23.6946 29.6298 22.5777 28.3151 21.8912ZM20.1265 27.184C20.243 26.2628 20.5943 25.3887 21.1456 24.6487C21.6968 23.9087 22.4287 23.3287 23.2684 22.9664C23.3872 22.9139 23.4887 22.8281 23.5613 22.719C23.5813 22.6873 23.5988 22.6541 23.6135 22.6196V22.5987C23.6279 22.5628 23.6393 22.5257 23.6476 22.4878V22.4693C23.6571 22.4213 23.6617 22.3725 23.6612 22.3236V20.9616H24.9983C25.179 20.9616 25.3522 20.8886 25.4799 20.7585C25.6077 20.6284 25.6794 20.4519 25.6794 20.2679C25.6794 20.084 25.6077 19.9075 25.4799 19.7774C25.3522 19.6473 25.179 19.5743 24.9983 19.5743H23.6703V18.6493H25.0074C25.1881 18.6493 25.3613 18.5763 25.489 18.4462C25.6167 18.3161 25.6885 18.1396 25.6885 17.9556C25.6885 17.7717 25.6167 17.5952 25.489 17.4651C25.3613 17.335 25.1881 17.262 25.0074 17.262H23.6703V16.2006H26.953V22.3305C26.9533 22.4691 26.9944 22.6043 27.0708 22.7189C27.1473 22.8335 27.2557 22.9221 27.3821 22.9733C28.2155 23.3387 28.941 23.919 29.4872 24.6569C30.0334 25.3949 30.3814 26.2651 30.4968 27.1817L20.1265 27.184Z" fill="white"/>
</svg>
