<svg width="50" height="50" viewBox="0 0 50 50" fill="none" xmlns="http://www.w3.org/2000/svg">
<rect x="0.318359" width="49.377" height="49.377" rx="24.6885" fill="#FABA38"/>
<path d="M34.6736 23.3494L33.8308 22.3769C33.4634 21.9447 33.2257 21.4044 33.1824 20.8209L33.0744 19.5458C32.9663 18.2275 31.9074 17.1686 30.5891 17.0605L29.3141 16.9525C28.7522 16.9093 28.1903 16.6932 27.7581 16.3042L26.7856 15.4613C25.7698 14.5969 24.2787 14.5969 23.2629 15.4613L22.2904 16.3042C21.8582 16.6715 21.3179 16.9093 20.7344 16.9525L19.4594 17.0605C18.1411 17.1686 17.0822 18.2275 16.9741 19.5458L16.8661 20.8209C16.8228 21.3828 16.6067 21.9447 16.2177 22.3769L15.3749 23.3494C14.5105 24.3651 14.5105 25.8563 15.3749 26.872L16.2177 27.8445C16.5851 28.2767 16.8228 28.817 16.8661 29.4005L16.9741 30.6755C17.0822 31.9938 18.1411 33.0528 19.4594 33.1608L20.7344 33.2689C21.2963 33.3121 21.8582 33.5282 22.2904 33.9172L23.2629 34.7384C24.2787 35.6029 25.7698 35.6029 26.7856 34.7384L27.7581 33.9172C28.1903 33.5498 28.7306 33.3121 29.3141 33.2689L30.5891 33.1608C31.9074 33.0528 32.9663 31.9938 33.0744 30.6755L33.1824 29.4005C33.2257 28.8386 33.4418 28.2767 33.8308 27.8445L34.6736 26.872C35.5381 25.8563 35.5381 24.3435 34.6736 23.3494ZM25.0567 30.7836C21.9231 30.7836 19.3729 28.2335 19.3729 25.0999C19.3729 21.9663 21.9231 19.4162 25.0567 19.4162C28.1903 19.4162 30.7404 21.9663 30.7404 25.0999C30.7404 28.2335 28.1903 30.7836 25.0567 30.7836Z" fill="white"/>
<path d="M28.2531 23.6305L26.6755 23.3279C26.5243 23.3063 26.373 23.1982 26.3081 23.0686L25.5301 21.6422C25.314 21.2749 24.7954 21.2749 24.5793 21.6422L23.8013 23.047C23.7148 23.1766 23.5851 23.2847 23.4339 23.3063L21.8563 23.6089C21.4456 23.6953 21.2728 24.1924 21.5537 24.5165L22.6559 25.7051C22.7639 25.8132 22.8071 25.9861 22.8071 26.1374L22.6126 27.7366C22.5694 28.1688 23.0016 28.4714 23.369 28.2985L24.8386 27.6285C24.9899 27.5637 25.1411 27.5637 25.2924 27.6285L26.762 28.2985C27.151 28.4714 27.5832 28.1688 27.5184 27.7366L27.3239 26.1374C27.3023 25.9861 27.3455 25.8132 27.4751 25.7051L28.5773 24.5165C28.8366 24.214 28.6854 23.6953 28.2531 23.6305Z" fill="white"/>
</svg>
