<svg width="50" height="50" viewBox="0 0 50 50" fill="none" xmlns="http://www.w3.org/2000/svg">
<rect x="0.126953" width="49.377" height="49.377" rx="24.6885" fill="#464377"/>
<path d="M24.8158 14.813L23.0896 15.9896L21.0354 15.5652L19.8878 17.3204L17.8336 17.7062L17.4479 19.7603L15.6927 20.908L16.117 22.9621L14.9404 24.6884L16.117 26.4147L15.6927 28.4688L17.4479 29.6164L17.8336 31.6706L19.8878 32.0564L21.0354 33.8116L23.0896 33.3872L24.8158 34.5638L26.5421 33.3872L28.5963 33.8116L29.7439 32.0564L31.7981 31.6706L32.1838 29.6164L33.939 28.4688L33.5147 26.4147L34.6912 24.6884L33.5147 22.9621L33.939 20.908L32.1838 19.7603L31.7981 17.7062L29.7439 17.3204L28.5963 15.5652L26.5421 15.9896L24.8158 14.813ZM24.8158 17.2818C28.8991 17.2818 32.2224 20.6052 32.2224 24.6884C32.2224 28.7716 28.8991 32.095 24.8158 32.095C20.7326 32.095 17.4093 28.7716 17.4093 24.6884C17.4093 20.6052 20.7326 17.2818 24.8158 17.2818ZM24.8158 18.5163C21.3998 18.5163 18.6437 21.2723 18.6437 24.6884C18.6437 28.1045 21.3998 30.8605 24.8158 30.8605C28.232 30.8605 30.988 28.1045 30.988 24.6884C30.988 21.2723 28.232 18.5163 24.8158 18.5163ZM27.8151 21.583L29.1652 22.8464L24.5361 27.7841L23.9189 28.4399L23.2439 27.842L20.4664 25.3731L21.7009 23.994L23.8032 25.865L27.8151 21.583Z" fill="white"/>
</svg>
